<svg width="150" height="150" viewBox="0 0 150 150" fill="none" xmlns="http://www.w3.org/2000/svg">
<path d="M106.232 40.0146L121.264 24.9822L132.516 36.2329L117.484 51.2654L106.232 40.0146Z" fill="#4E7AB5"/>
<path d="M60 15H86.25V30H60V15Z" fill="#4E7AB5"/>
<path d="M60 16.875C58.9687 16.875 58.125 16.035 58.125 15V3.75C58.125 2.715 58.9687 1.875 60 1.875H86.25C87.2813 1.875 88.125 2.715 88.125 3.75V15C88.125 16.035 87.2813 16.875 86.25 16.875H60Z" fill="#8BB7F0"/>
<path d="M86.25 3.75V15H60V3.75H86.25ZM86.25 0H60C57.93 0 56.25 1.68 56.25 3.75V15C56.25 17.07 57.93 18.75 60 18.75H86.25C88.32 18.75 90 17.07 90 15V3.75C90 1.68 88.32 0 86.25 0Z" fill="#4E7AB5"/>
<path d="M128.479 43.0875C128.179 43.0875 127.894 42.9713 127.68 42.7575L114.705 29.7862C114.266 29.3475 114.266 28.6275 114.705 28.1888L121.939 20.955C122.149 20.7412 122.434 20.625 122.734 20.625C123.038 20.625 123.319 20.7412 123.533 20.955L136.508 33.9262C136.946 34.365 136.946 35.085 136.508 35.5237L129.274 42.7538C129.064 42.9675 128.779 43.0875 128.479 43.0875Z" fill="#8BB7F0"/>
<path d="M122.738 22.8075L134.655 34.725L128.479 40.9012L116.558 28.9875L122.738 22.8075ZM122.738 18.75C121.969 18.75 121.2 19.0425 120.615 19.6313L113.381 26.865C112.208 28.0388 112.208 29.94 113.381 31.1137L126.353 44.085C126.938 44.67 127.706 44.9663 128.475 44.9663C129.244 44.9663 130.013 44.6737 130.598 44.085L137.831 36.8512C139.005 35.6775 139.005 33.7763 137.831 32.6025L124.86 19.6313C124.275 19.0425 123.506 18.75 122.738 18.75Z" fill="#4E7AB5"/>
<path d="M73.125 148.125C40.0425 148.125 13.125 121.207 13.125 88.125C13.125 55.0425 40.0425 28.125 73.125 28.125C106.207 28.125 133.125 55.0425 133.125 88.125C133.125 121.207 106.207 148.125 73.125 148.125Z" fill="#8BB7F0"/>
<path d="M73.125 30C105.176 30 131.25 56.0738 131.25 88.125C131.25 120.176 105.176 146.25 73.125 146.25C41.0738 146.25 15 120.176 15 88.125C15 56.0738 41.0738 30 73.125 30ZM73.125 26.25C38.9513 26.25 11.25 53.9513 11.25 88.125C11.25 122.299 38.9513 150 73.125 150C107.299 150 135 122.299 135 88.125C135 53.9513 107.299 26.25 73.125 26.25Z" fill="#4E7AB5"/>
<path d="M73.125 136.875C46.245 136.875 24.375 115.005 24.375 88.125C24.375 61.245 46.245 39.375 73.125 39.375C100.005 39.375 121.875 61.245 121.875 88.125C121.875 115.005 100.005 136.875 73.125 136.875Z" fill="#F2FAFF"/>
<path d="M73.125 41.25C98.9738 41.25 120 62.2762 120 88.125C120 113.974 98.9738 135 73.125 135C47.2762 135 26.25 113.974 26.25 88.125C26.25 62.2762 47.2762 41.25 73.125 41.25ZM73.125 37.5C45.165 37.5 22.5 60.165 22.5 88.125C22.5 116.085 45.165 138.75 73.125 138.75C101.085 138.75 123.75 116.085 123.75 88.125C123.75 60.165 101.085 37.5 73.125 37.5Z" fill="#4E7AB5"/>
<path d="M52.5 67.5L73.125 88.125" stroke="#66798F" stroke-miterlimit="10" stroke-linecap="round"/>
<path d="M73.125 82.5C72.3863 82.5 71.6549 82.6455 70.9724 82.9282C70.2899 83.2109 69.6699 83.6252 69.1475 84.1475C68.6252 84.6699 68.2109 85.2899 67.9282 85.9724C67.6455 86.6549 67.5 87.3863 67.5 88.125C67.5 88.8637 67.6455 89.5951 67.9282 90.2776C68.2109 90.9601 68.6252 91.5801 69.1475 92.1025C69.6699 92.6248 70.2899 93.0391 70.9724 93.3218C71.6549 93.6045 72.3863 93.75 73.125 93.75C73.8637 93.75 74.5951 93.6045 75.2776 93.3218C75.9601 93.0391 76.5801 92.6248 77.1025 92.1025C77.6248 91.5801 78.0391 90.9601 78.3218 90.2776C78.6045 89.5951 78.75 88.8637 78.75 88.125C78.75 87.3863 78.6045 86.6549 78.3218 85.9724C78.0391 85.2899 77.6248 84.6699 77.1025 84.1475C76.5801 83.6252 75.9601 83.2109 75.2776 82.9282C74.5951 82.6455 73.8637 82.5 73.125 82.5V82.5ZM75 41.3437C74.3738 41.3212 73.7587 41.25 73.125 41.25C72.4913 41.25 71.8762 41.3212 71.25 41.3437V48.75H75V41.3437ZM71.25 134.906C71.8762 134.929 72.4913 135 73.125 135C73.7587 135 74.3738 134.929 75 134.906V127.5H71.25V134.906ZM26.3438 90H33.75V86.25H26.3438C26.3213 86.8762 26.25 87.4913 26.25 88.125C26.25 88.7587 26.3213 89.3738 26.3438 90ZM112.5 90H119.906C119.929 89.3738 120 88.7587 120 88.125C120 87.4913 119.929 86.8762 119.906 86.25H112.5V90ZM51.8138 54.9637L55.0612 53.0887L51.345 46.6537C50.235 47.2387 49.1662 47.8837 48.1125 48.5512L51.8138 54.9637ZM94.4363 121.286L91.1887 123.161L94.905 129.596C96.015 129.011 97.0838 128.366 98.1375 127.699L94.4363 121.286ZM31.6537 109.905C32.2387 111.015 32.8837 112.084 33.5512 113.138L39.9637 109.436L38.0887 106.189L31.6537 109.905ZM114.596 66.345C114.011 65.235 113.366 64.1662 112.699 63.1125L106.286 66.8137L108.161 70.0613L114.596 66.345ZM38.0887 70.0613L39.9637 66.8137L33.5512 63.1125C32.8837 64.1662 32.2387 65.2387 31.6537 66.345L38.0887 70.0613ZM108.161 106.189L106.286 109.436L112.699 113.138C113.366 112.084 114.011 111.011 114.596 109.905L108.161 106.189ZM48.1125 127.699C49.1662 128.366 50.2388 129.011 51.345 129.596L55.0612 123.161L51.8138 121.286L48.1125 127.699ZM94.905 46.6537L91.1887 53.0887L94.4363 54.9637L98.1375 48.5512C97.0838 47.88 96.015 47.2387 94.905 46.6537Z" fill="#66798F"/>
</svg>

